HIERARCHY
ROOT root
{
	OFFSET 0.000000 0.000000 0.000000
	CHANNELS 6 Xposition Yposition Zposition Zrotation Yrotation Xrotation
	JOINT lhip
	{
		OFFSET 0.058581 -0.082280 -0.017664
		CHANNELS 3 Zrotation Yrotation Xrotation
		JOINT lknee
		{
			OFFSET 0.043451 -0.386469 0.008037
			CHANNELS 3 Zrotation Yrotation Xrotation
			JOINT lankle
			{
				OFFSET -0.014790 -0.426874 -0.037428
				CHANNELS 3 Zrotation Yrotation Xrotation
				JOINT ltoe
				{
					OFFSET 0.041054 -0.060286 0.122042
					CHANNELS 3 Zrotation Yrotation Xrotation
					End Site
					{
						OFFSET 0.000000 0.000000 0.000000
					}
				}
			}
		}
	}
	JOINT rhip
	{
		OFFSET -0.060310 -0.090513 -0.013543
		CHANNELS 3 Zrotation Yrotation Xrotation
		JOINT rknee
		{
			OFFSET -0.043257 -0.383688 -0.004843
			CHANNELS 3 Zrotation Yrotation Xrotation
			JOINT rankle
			{
				OFFSET 0.019056 -0.420046 -0.034562
				CHANNELS 3 Zrotation Yrotation Xrotation
				JOINT rtoe
				{
					OFFSET -0.034840 -0.062106 0.130323
					CHANNELS 3 Zrotation Yrotation Xrotation
					End Site
					{
						OFFSET 0.000000 0.000000 0.000000
					}
				}
			}
		}
	}
	JOINT lowerback
	{
		OFFSET 0.004439 0.124404 -0.038385
		CHANNELS 3 Zrotation Yrotation Xrotation
		JOINT upperback
		{
			OFFSET 0.004488 0.137956 0.026820
			CHANNELS 3 Zrotation Yrotation Xrotation
			JOINT chest
			{
				OFFSET -0.002265 0.056032 0.002855
				CHANNELS 3 Zrotation Yrotation Xrotation
				JOINT lowerneck
				{
					OFFSET -0.013390 0.211636 -0.033468
					CHANNELS 3 Zrotation Yrotation Xrotation
					JOINT upperneck
					{
						OFFSET 0.010113 0.088937 0.050410
						CHANNELS 3 Zrotation Yrotation Xrotation
						End Site
						{
							OFFSET 0.000000 0.000000 0.000000
						}
					}
				}
				JOINT lclavicle
				{
					OFFSET 0.071702 0.114000 -0.018898
					CHANNELS 3 Zrotation Yrotation Xrotation
					JOINT lshoulder
					{
						OFFSET 0.122921 0.045205 -0.019046
						CHANNELS 3 Zrotation Yrotation Xrotation
						JOINT lelbow
						{
							OFFSET 0.255332 -0.015649 -0.022946
							CHANNELS 3 Zrotation Yrotation Xrotation
							JOINT lwrist
							{
								OFFSET 0.265709 0.012698 -0.007375
								CHANNELS 3 Zrotation Yrotation Xrotation
								End Site
								{
									OFFSET 0.000000 0.000000 0.000000
								}
							}
						}
					}
				}
				JOINT rclavicle
				{
					OFFSET -0.082954 0.112472 -0.023707
					CHANNELS 3 Zrotation Yrotation Xrotation
					JOINT rshoulder
					{
						OFFSET -0.113228 0.046853 -0.008472
						CHANNELS 3 Zrotation Yrotation Xrotation
						JOINT relbow
						{
							OFFSET -0.260127 -0.014369 -0.031269
							CHANNELS 3 Zrotation Yrotation Xrotation
							JOINT rwrist
							{
								OFFSET -0.269108 0.006794 -0.006027
								CHANNELS 3 Zrotation Yrotation Xrotation
								End Site
								{
									OFFSET 0.000000 0.000000 0.000000
								}
							}
						}
					}
				}
			}
		}
	}
}
MOTION
Frames: 7
Frame Time: 0.033333
0.126557 0.892842 0.885448 -23.496216 1.019640 99.884262 10.999406 9.311608 -39.551855 -6.085512 12.388900 53.364626 4.013346 13.144231 -31.457633 0.000000 -0.000000 0.000000 -17.582512 -7.728785 -50.749727 2.295508 -1.358887 42.199692 13.848339 0.243404 -2.728441 0.000000 -0.000000 0.000000 -1.335384 2.123320 51.046716 1.516370 0.787384 -6.606092 1.724030 0.280762 0.510605 -3.873961 -1.156759 -21.122015 -0.362015 -15.940006 14.347422 -24.585412 -4.288347 3.039234 -37.521254 -4.873969 12.411994 -17.421982 -74.748429 30.364551 14.104391 -10.148853 -19.668888 31.209178 10.927108 4.073939 44.095952 13.769176 10.275088 -57.223342 62.598491 -60.890768 2.442098 11.707639 -27.604199 
0.119064 0.895197 0.883523 -23.847760 0.810806 100.390117 11.115064 9.704778 -40.082939 -6.070784 12.101653 53.592877 4.082411 13.249161 -31.214310 0.000000 -0.000000 0.000000 -17.495536 -7.589972 -52.068106 2.768854 -1.432252 43.363980 13.332424 0.127535 -3.118075 0.000000 -0.000000 0.000000 -1.386366 1.974066 50.951418 1.208425 1.189748 -6.659249 1.594739 0.196529 0.872691 -4.076073 -0.332337 -21.372710 -0.920128 -14.522465 14.799436 -24.734090 -3.957852 2.993287 -37.259943 -4.238389 12.412520 -18.284952 -75.118370 30.893400 13.935694 -10.184215 -19.821302 31.035794 11.348234 3.798839 43.775170 14.949833 10.807459 -57.858137 63.349213 -61.697323 2.078503 11.664904 -27.676557 
0.112080 0.896394 0.881682 -23.485267 0.440570 100.755929 10.961789 9.666292 -40.589544 -6.116481 11.512698 53.669175 4.129484 13.389646 -30.997642 0.000000 -0.000000 0.000000 -17.818456 -7.796679 -52.819859 2.960281 -1.986628 44.577398 12.952606 0.159201 -3.857155 0.000000 -0.000000 0.000000 -1.109443 1.332347 51.286548 0.898274 1.166947 -6.997077 1.426719 0.151358 0.978434 -4.723115 0.285884 -20.998320 -1.252721 -12.457108 14.649686 -24.816330 -3.836585 3.010739 -37.371936 -3.293661 12.483792 -18.166954 -75.250909 29.936535 14.533538 -10.239491 -20.045098 30.227706 11.941934 3.694743 43.793187 15.893846 11.254522 -58.293805 64.373189 -62.869427 1.654353 11.902675 -28.059523 
0.100199 0.898714 0.879190 -22.830274 -0.032570 101.321331 11.396636 9.667616 -41.082719 -6.619793 11.290003 53.603106 3.946260 13.253718 -30.835144 0.000000 -0.000000 0.000000 -18.119835 -7.764269 -54.104563 3.421836 -2.337594 46.708225 12.172458 -0.311793 -5.262691 0.000000 -0.000000 0.000000 -1.058436 0.451046 52.130712 0.214709 1.421276 -7.683599 1.087956 0.197618 1.203984 -5.498522 0.876446 -20.907701 -1.349091 -9.657292 14.247996 -25.004109 -3.383158 2.776040 -37.078107 -2.060200 12.638781 -17.747040 -75.676987 28.573519 16.928738 -9.445400 -22.187907 28.843154 12.809879 3.090663 44.379185 17.715511 12.451320 -58.151555 65.755917 -63.522060 0.426354 11.680727 -29.195739 
0.091668 0.901827 0.875428 -21.961513 -0.269936 102.155922 12.059646 9.745494 -42.244077 -7.052022 11.503755 53.935753 3.837664 12.673691 -30.647769 0.000000 -0.000000 0.000000 -18.447237 -7.824213 -55.698687 3.605923 -3.070805 48.799018 11.472709 -0.757040 -6.553425 0.000000 -0.000000 0.000000 -1.139187 -0.195181 51.958517 -0.172386 1.645712 -7.765472 0.843092 0.275574 1.211910 -5.466128 0.916347 -20.470217 -0.953246 -8.335610 13.361595 -24.907413 -3.071816 2.883660 -37.066989 -1.234309 12.572257 -16.583221 -76.007086 26.374185 18.918114 -8.763315 -23.670263 27.569250 13.703782 2.655443 45.338806 19.643378 13.127635 -56.591770 65.773973 -62.745615 -0.279510 11.519166 -29.896390 
0.082353 0.903864 0.870335 -21.251872 -0.523123 102.341558 12.778948 10.306553 -42.737780 -7.615345 11.623961 54.510295 3.810832 11.990376 -30.495734 0.000000 -0.000000 0.000000 -18.707565 -7.752818 -56.950922 3.705661 -3.626580 51.402938 10.764762 -0.786457 -8.028007 0.000000 -0.000000 0.000000 -1.240791 -0.262193 52.737361 -0.651277 2.036709 -8.004335 0.749701 0.497832 1.170411 -5.185738 0.709442 -20.100133 -0.502667 -7.886825 12.235616 -24.649182 -3.098598 2.726883 -37.348049 -0.405882 12.573930 -15.419499 -76.556948 25.050263 21.276456 -7.823026 -24.270179 26.037216 14.976649 2.157832 46.117968 21.690164 13.092210 -55.418872 65.243432 -62.241588 -1.264568 11.124409 -30.743438 
0.073676 0.906661 0.863274 -19.578790 -1.180899 102.631784 12.897626 10.264521 -44.135694 -8.144810 11.300461 55.562831 3.780864 11.393456 -30.298571 0.000000 -0.000000 0.000000 -19.255143 -8.899977 -58.240153 3.870560 -4.404358 54.297498 10.334409 -0.657206 -9.658546 0.000000 -0.000000 0.000000 -0.752803 -0.475255 53.671517 -1.089204 2.197236 -8.539547 0.491435 0.615962 1.402640 -4.599495 -0.074081 -19.997382 -0.519531 -8.198898 11.252380 -24.031106 -3.308089 2.607665 -37.830642 -0.129782 12.442924 -16.065853 -76.720813 27.139795 22.097053 -7.509535 -24.998196 24.063013 16.285688 1.759155 46.661164 24.400956 12.206537 -53.155715 63.875178 -60.564811 -2.813716 10.939698 -32.779939 
